Coordinates
version=1
nRows=22
nColumns=24
inDegrees=yes

Units are S.I. units (second, meters, Newtons, ...)
Angles are in degrees.

endheader
time	pelvis_tilt	pelvis_list	pelvis_rotation	pelvis_tx	pelvis_ty	pelvis_tz	hip_flexion_r	hip_adduction_r	hip_rotation_r	knee_angle_r	ankle_angle_r	subtalar_angle_r	mtp_angle_r	hip_flexion_l	hip_adduction_l	hip_rotation_l	knee_angle_l	ankle_angle_l	subtalar_angle_l	mtp_angle_l	lumbar_extension	lumbar_bending	lumbar_rotation
      5.21000000	      3.32793266	     -2.89013239	      2.10206182	     -1.61125149	      0.89515054	      0.27915389	      8.32023272	      8.74399576	     -1.66043618	    -19.95150341	     19.40103603	     -2.48083340	      0.00000000	     17.88312407	     -2.01670046	     -2.14156315	    -67.36804757	     10.25604850	     -4.64194001	      0.00000000	    -23.32183167	      3.80516020	     -3.51155909
      5.22000000	      3.16219440	     -2.77456498	      1.89037965	     -1.60052421	      0.89657390	      0.27967128	      7.21312294	      8.71684739	     -1.27496443	    -18.98836343	     19.63156583	     -2.36117047	      0.00000000	     19.13416993	     -1.98589929	     -2.40966386	    -65.78262244	     10.73356164	     -4.88094913	      0.00000000	    -23.14000711	      3.53574759	     -3.11805535
      5.23000000	      3.05159076	     -2.59874702	      1.65892791	     -1.58985015	      0.89792676	      0.28008753	      6.04128563	      8.62379761	     -0.73585870	    -18.01826117	     19.75303863	     -2.43259647	      0.00000000	     20.18869304	     -1.85645700	     -2.65540267	    -63.82752973	     11.05466484	     -5.09755859	      0.00000000	    -23.05532109	      3.22415248	     -2.69208500
      5.24000000	      2.98101799	     -2.43784379	      1.49002040	     -1.57920571	      0.89911467	      0.28032121	      4.82996937	      8.52288825	     -0.22814968	    -17.03988033	     19.80702943	     -2.57288189	      0.00000000	     21.08396340	     -1.68358287	     -2.78152989	    -61.53953938	     11.25516805	     -5.54655860	      0.00000000	    -23.03218754	      2.96862647	     -2.39331998
      5.25000000	      2.90188041	     -2.27688106	      1.35264989	     -1.56858349	      0.90005067	      0.28039746	      3.67385841	      8.38844762	      0.16431896	    -16.13664439	     19.97843792	     -2.62370935	      0.00000000	     21.85300588	     -1.44646880	     -2.79054745	    -58.91546373	     11.30639708	     -6.22731554	      0.00000000	    -23.00883174	      2.74279011	     -2.07274835
      5.26000000	      2.84434313	     -2.11845544	      1.22725113	     -1.55795752	      0.90078105	      0.28037081	      2.51684264	      8.23464587	      0.49586003	    -15.27153225	     20.18047189	     -2.57562108	      0.00000000	     22.44737780	     -1.17952952	     -2.73396962	    -55.94706719	     11.09658610	     -7.24048799	      0.00000000	    -23.01595954	      2.53342895	     -1.79066724
      5.27000000	      2.80853946	     -2.00520034	      1.13971884	     -1.54731856	      0.90126368	      0.28019735	      1.35102150	      8.11065958	      0.75828539	    -14.42415358	     20.39143763	     -2.53759266	      0.00000000	     22.86658551	     -0.90706105	     -2.54311634	    -52.64901216	     10.61044087	     -8.73478267	      0.00000000	    -23.05094619	      2.40648030	     -1.52381518
      5.28000000	      2.78753268	     -1.94961201	      1.04241311	     -1.53664693	      0.90147417	      0.27997014	      0.18395593	      8.03825999	      1.01512914	    -13.60557160	     20.63979949	     -2.49106059	      0.00000000	     23.10638639	     -0.67863236	     -2.26748114	    -49.03094436	      9.81842279	    -10.64041201	      0.00000000	    -23.10125145	      2.34723007	     -1.21097018
      5.29000000	      2.75571212	     -1.98648329	      0.96456981	     -1.52590232	      0.90135485	      0.27964150	     -0.97202878	      8.05131867	      1.22421230	    -12.78352632	     20.80072808	     -2.46958184	      0.00000000	     23.19779530	     -0.53102271	     -1.88427312	    -45.11249042	      8.69853308	    -13.01074984	      0.00000000	    -23.11881801	      2.41668873	     -0.95972116
      5.30000000	      2.73601549	     -2.11373373	      0.82607290	     -1.51508046	      0.90092877	      0.27934892	     -2.12724945	      8.15405845	      1.50306904	    -12.00280758	     20.99767545	     -2.44768580	      0.00000000	     23.10976962	     -0.51428007	     -1.48452338	    -40.91729899	      7.30111203	    -15.56791767	      0.00000000	    -23.13942673	      2.57049882	     -0.61689832
      5.31000000	      2.71776394	     -2.35267534	      0.62861876	     -1.50415940	      0.90016740	      0.27909018	     -3.26997821	      8.36547248	      1.85392457	    -11.26780702	     21.19396316	     -2.43915926	      0.00000000	     22.87093706	     -0.66492988	     -1.09449819	    -36.49370579	      5.68101636	    -18.12910159	      0.00000000	    -23.14660820	      2.83590312	     -0.20223603
      5.32000000	      2.69925300	     -2.71667890	      0.36110144	     -1.49312565	      0.89906630	      0.27890448	     -4.39773929	      8.69760640	      2.29599843	    -10.58870172	     21.38525879	     -2.43851771	      0.00000000	     22.51970028	     -1.02642371	     -0.81306101	    -31.92182344	      3.99356753	    -20.32663852	      0.00000000	    -23.13626876	      3.22614413	      0.28766970
      5.33000000	      2.67565702	     -3.23003098	      0.01902934	     -1.48199931	      0.89763035	      0.27880734	     -5.49192653	      9.17223895	      2.82027256	     -9.99489187	     21.57341449	     -2.48662021	      0.00000000	     22.10759868	     -1.62882655	     -0.71201535	    -27.29560718	      2.34497130	    -21.81183383	      0.00000000	    -23.11337155	      3.75970773	      0.89133826
      5.34000000	      2.66650279	     -3.81381146	     -0.42239374	     -1.47072881	      0.89595156	      0.27883098	     -6.58424167	      9.69585069	      3.45341376	     -9.48952029	     21.76955290	     -2.51014240	      0.00000000	     21.63243233	     -2.40076213	     -0.99371525	    -22.67429410	      0.99531571	    -22.18798468	      0.00000000	    -23.09908362	      4.33694163	      1.56037585
      5.35000000	      2.67617512	     -4.45021817	     -0.94280534	     -1.45931505	      0.89408646	      0.27894141	     -7.67262994	     10.23914769	      4.07504749	     -9.08602730	     22.04844311	     -2.35059361	      0.00000000	     21.13262441	     -3.28813498	     -1.73244301	    -18.15676228	     -0.03425645	    -21.24122060	      0.00000000	    -23.10103066	      4.94222091	      2.25465134
      5.36000000	      2.72188869	     -5.14428868	     -1.53493895	     -1.44778738	      0.89210764	      0.27911614	     -8.81539460	     10.81477857	      4.91980832	     -8.72164848	     22.18699805	     -2.41892074	      0.00000000	     20.63121242	     -4.25894449	     -2.99975831	    -13.85939740	     -0.65698037	    -18.79922327	      0.00000000	    -23.15594462	      5.59105253	      3.03249562
      5.37000000	      2.82526103	     -5.84403631	     -2.17254928	     -1.43617558	      0.89010590	      0.27927908	     -9.96651413	     11.34486246	      5.62636232	     -8.50673679	     22.40360847	     -2.29097048	      0.00000000	     20.10787419	     -5.19833320	     -4.68600228	     -9.84189946	     -1.08829687	    -15.09999027	      0.00000000	    -23.29975605	      6.22848447	      3.83134526
      5.38000000	      2.93461683	     -6.51625779	     -2.84585606	     -1.42449070	      0.88807131	      0.27940012	    -11.08705513	     11.80034160	      6.30562424	     -8.40914329	     22.65763547	     -2.03953397	      0.00000000	     19.62303440	     -6.03742010	     -6.59045976	     -6.16987169	     -1.47697926	    -10.49920386	      0.00000000	    -23.46762987	      6.82775191	      4.60418965
      5.39000000	      3.00378363	     -7.14528550	     -3.53816064	     -1.41275993	      0.88597848	      0.27946901	    -12.11058952	     12.17449178	      6.94695695	     -8.44637254	     22.96569828	     -1.68375078	      0.00000000	     19.20368354	     -6.74760187	     -8.27053424	     -2.84562614	     -2.04547134	     -5.70896643	      0.00000000	    -23.60195533	      7.37417348	      5.34226322
      5.40000000	      3.07510830	     -7.73600054	     -4.21500049	     -1.40098297	      0.88389256	      0.27946730	    -13.06031130	     12.48048834	      7.49814038	     -8.65228459	     23.32427475	     -1.23262946	      0.00000000	     18.75051070	     -7.35127089	     -9.20175214	      0.17933685	     -2.89480539	     -1.56606565	      0.00000000	    -23.75134451	      7.87987106	      6.03403673
      5.41000000	      3.13025097	     -8.30375284	     -4.87439423	     -1.38915000	      0.88183275	      0.27946299	    -13.93097693	     12.74363670	      7.97653776	     -8.99166607	     23.64922039	     -0.68027624	      0.00000000	     18.28236411	     -7.93180399	     -9.31905518	      2.84137619	     -3.77441710	      1.67071107	      0.00000000	    -23.89562834	      8.34565394	      6.68327327
      5.42000000	      3.17665263	     -8.79912917	     -5.49790243	     -1.37727088	      0.87986642	      0.27943987	    -14.71135072	     12.92409682	      8.40237933	     -9.48297001	     23.97046150	     -0.08304449	      0.00000000	     17.89667882	     -8.47946336	     -9.00742677	      4.91004481	     -4.32392208	      4.19439898	      0.00000000	    -24.03794240	      8.73023711	      7.27866573
